/* XPM */
static char *_7d06bfc97e24c74cc8245777f865ec98qEQ7uNyJAYkMLP0[] = {
/* columns rows colors chars-per-pixel */
"60 60 140 2 ",
"   c None",
".  c #AE8C03",
"X  c #B18E02",
"o  c #B59203",
"O  c #BA9501",
"+  c #BE9902",
"@  c #B5930B",
"#  c #B9960D",
"$  c #BE9A0C",
"%  c #B99710",
"&  c #BE9B11",
"*  c #C59E02",
"=  c #C29D0C",
"-  c #C29F14",
";  c #C7A004",
":  c #CCA301",
">  c #C6A10E",
",  c #CCA50B",
"<  c #CFA80E",
"1  c #D1A700",
"2  c #D4AA00",
"3  c #D9AF06",
"4  c #D2AA0D",
"5  c #D8AF08",
"6  c #DBB006",
"7  c #DCB20A",
"8  c #C6A215",
"9  c #CAA513",
"0  c #CEA911",
"q  c #CCA819",
"w  c #D3AD13",
"e  c #D4AE1A",
"r  c #DAB314",
"t  c #DBB41A",
"y  c #DFB81D",
"u  c #E1B60C",
"i  c #E2B80E",
"p  c #E0B713",
"a  c #E5BB13",
"s  c #E9BE15",
"d  c #E5BD1D",
"f  c #E8BF1C",
"g  c #E6BE22",
"h  c #ECC117",
"j  c #ECC21B",
"k  c #F1C61C",
"l  c #F3C81E",
"z  c #EDC423",
"x  c #F1C723",
"c  c #F5CA20",
"v  c #F1C825",
"b  c #F3C924",
"n  c #F2C927",
"m  c #F3CA26",
"M  c #F4CA25",
"N  c #F4CB27",
"B  c #F6CC26",
"V  c #F6CD26",
"C  c #F7CD26",
"Z  c #F6CC27",
"A  c #F6CD27",
"S  c #F4CA23",
"D  c #F8CD23",
"F  c #F8CD24",
"G  c #F9CF27",
"H  c #FACF26",
"J  c #F9CE24",
"K  c #F2C928",
"L  c #F3CA28",
"P  c #F6CD2B",
"I  c #F7CD28",
"U  c #F8CE2A",
"Y  c #F9CF29",
"T  c #FCD127",
"R  c #FAD028",
"E  c #FBD128",
"W  c #FBD129",
"Q  c #F9D02B",
"!  c #FCD229",
"~  c #FDD229",
"^  c #FED329",
"/  c #FDD22A",
"(  c #FED32A",
")  c #FFD429",
"_  c #FDD42A",
"`  c #FED42A",
"'  c #FFD42A",
"]  c #FFD52A",
"[  c #FED42B",
"{  c #FFD42B",
"}  c #FFD52B",
"|  c #FFD62B",
" . c #FAD12C",
".. c #FBD12C",
"X. c #FBD22E",
"o. c #FDD32C",
"O. c #FDD32D",
"+. c #FED32C",
"@. c #FED42C",
"#. c #FFD42C",
"$. c #FFD52C",
"%. c #FFD52D",
"&. c #FFD52F",
"*. c #FFD42A",
"=. c #FFD530",
"-. c #FFD531",
";. c #FFD632",
":. c #FFD634",
">. c #FFD635",
",. c #FFD636",
"<. c #FFD736",
"1. c #FFD630",
"2. c #FFD739",
"3. c #FFD73A",
"4. c #FFD73B",
"5. c #FFD83B",
"6. c #FFD83D",
"7. c #FFD941",
"8. c #FFD942",
"9. c #FFD943",
"0. c #FFDA45",
"q. c #FFDA46",
"w. c #FFDA49",
"e. c #FFDB49",
"r. c #FFDB4A",
"t. c #FFDB4B",
"y. c #FFDB4C",
"u. c #FFDB4D",
"i. c #FFDB4E",
"p. c #FFDC4E",
"a. c #FFDC4F",
"s. c #FFDC50",
"d. c #FFDC52",
"f. c #FFDD54",
"g. c #FFDD55",
"h. c #FFDD56",
"j. c #FFDD57",
"k. c #FFDD58",
"l. c #FFDE58",
"z. c #FFDE59",
/* pixels */
"                                                l.l.j.j.j.j.j.l.j.j.j.j.                                                ",
"                                          j.j.j.j.j.j.j.j.s.j.j.j.j.j.j.j.j.j.                                          ",
"                                    j.j.j.j.s.a.r.0.7.6.5.3.3.5.5.7.0.t.a.j.s.j.j.j.                                    ",
"                                j.j.j.s.a.7.<.&.' ' ' ' ) ) ) ) ' ' ' &.&.<.7.a.a.j.j.j.z.                              ",
"                            j.j.j.a.6.:.&.' ' ' ' ' ' ' ' ' ' ' ' ' ' ' ' ' ' ' ;.7.a.j.j.j.                            ",
"                        j.j.j.r.5.&.' ' ' ' ' ' ' ' ' ' ' ' ' ' ' ' ' ' ' ' ' ' ' ' &.6.t.s.j.l.                        ",
"                      j.j.a.4.&.' ' ' ' ' ' ' ' ' ' ' ' ' ' ' ' ' ' ' ' ' ' ' ' ' ' ' ' &.5.a.j.j.                      ",
"                    j.s.0.;.' ' ' ' ' ' ' ' ' ' ' ' ' ' ' ^ ^ ' ' ' ' ' ' ' ' ' ' ' ' ' ' ' &.0.s.j.                    ",
"                  j.s.5.' ' ' ' ' ' ' ' ^ &.' T b d r 0 8 > > > 0 r z n T ' ^ ' ' ' ' ' ' ' ' ' 6.a.j.                  ",
"                j.r.:.' ' ' ' ' ' ' ' ' R j 0 $ o X X o O O O O o X . o = w z ^ ' ' ' ' ' ' ' ' ' <.t.j.                ",
"              j.r.&.' ' ' ' ' ' ' ' J y $ . X O * : 2 2 2 2 2 2 2 2 : ; + X X > j Q ' ' ' ' ' ' ' ) ;.t.j.              ",
"            j.r.&.' ' ' ' ' ' ' _ j = . O ; 2 2 2 2 2 2 2 2 2 2 2 2 2 2 2 2 ; O X > b | ' ' ' ' ' ' ) &.r.j.            ",
"          j.r.;.' ' ^ ' ' ' ' R w o O ; 2 2 2 2 2 2 2 2 2 2 2 2 2 2 2 2 2 2 2 2 : O o y T | ' ' ' ' ' ) &.t.l.          ",
"        l.a.;.' ' ' &.    ' z = o * 2 2 2 2 2 2 2 2 2 2 2 2 2 2 2 2 2 2 2 2 2 2 2 2 ; O 9 Z ' ' ' ' ' ' ' ;.s.l.        ",
"        j.3.' ' ' ' &.      $ O : 2 2 2 2 2 2 2 2 2 2 2 2 2 2 2 2 2 2 2 2 2 2 2 2 2 2 1 O > Z ' ' ' ' ' ' ' 5.s.        ",
"      j.7.' ' ' ' ' ' &.      2 2 2 2 2 2 2 2 2 2 2       o.&.^ &.      2 2 2 2 2 2 2 2 2 + , R ' ' ' ' ' ' ' 7.j.      ",
"      u.;.' ' ' ^ &.&.N =     5 2 2 2 2 2 2 2 7   1.1.' ' ' ' ' ' ' ' ' &.  3 2 2 2 2 2 2 2 + w R ' ' ' ' ' ' ;.u.      ",
"    j.3.' ' ' '       9 + 2 2 2 2 2 2 2 2 3 v ' ' ' ' ' ' ' ' ' ' ' ' ' ' ' ' h 2 2 2 2 2 2 1 + t ' ' ' ' ' ' ' 3.j.    ",
"    r.&.' ' '         + 1 2 2 2 2 2 2 2 5 Q &.' ' ' ' ' ' ' ' ' ' ' ' ' ' ' ' 1.j 5 2 2 2 2 2 1 * z ' ' ' ' ' ' &.0.    ",
"    :.' ' ' &.        2 2 2 2 2 2 2 2 6  .' ' ' ' ' ' ' | | ' ' | ' ' ' ' ' ' '  .j 2 2 2 2 2 2 ; < ^ ' ' ' ' ' ' 3.    ",
"  u.;.^ ' ' &.        2 2 2 2 2 2 2 2 P &.' ' ' ' ' R z e 9 8 9 r g P ' ' ' ' ' &.' 7 2 2 2 2 2 2 ; x ' ' ' ' ' ' &.a.  ",
"  7.' ' ' ' &.        2 2 2 2 2 2 2 z &.' ' ' ' ' P & . O ; : : ; + 9 n ' ' ' ' ' ' n 2 2 2 2 2 2 1 r ' ' ' ' ' ' ' 7.  ",
"  :.' ' ' ' :.        2 2 2 2 2 2 6 =.' ' ' ' ' P % O 2 2 2 2 2 2 2 : < Z ' ' ' ' '  .7 2 2 2 2 2 2 , D ' ' ' ' ' ' :.  ",
"t.&.' ' ' ' ;.        2 2 2 2 2 2 d X.' ' ' ' ' 8 O 2 2 2 2 2 2 2 2 2 2 a ' ' &.| _ n 4 2 2 2 2 2 2 : j ' ' ' ' ' ' &.a.",
"7.&.' ' ' ' '       2 2 2 2 2 2 2 n ' ' ' ' ' z o 2 2 2 2 2 2 2 2 2 2 2 2 n g e 8 % o + 2 2 2 2 2 2 1 t ' ' ' ' ' ' ' 0.",
"3.' ' ' ' ' ' Z , 2 2 2 2 2 2 2 7 X.' ' ' ' &.9 ; 2 2 2 2 2 2 2 2 2 2 2 2 * X o * : 2 2 2 2 2 2 2 2 2 7 T ' ' ' ' ' ' 4.",
";.' ' ' ' ' ' z : 2 2 2 2 2 2 2 r 1.' ' ' ' R = 1 2 2 2 2 2 2 2 2 2 2 2 2 2 2 2 2 2 2 2 2 2 2 2 2 2 2 5 R ' ' ' ' ' ^ :.",
";.^ ' ' ' ' ' j 1 2 2 2 2 2 2 2 a ' ' ' ' ' m = 2 2 2 2 2 2 2 2 2 2 2 2 2 2 2 2 2 2 2 2 2 2 2 2 2 2 2 2 D ' ' ' ' ' ' &.",
"' ' ' ' ' ' &.h 2 2 2 2 2 2 2 2 h ' ' ' ' | v * 2 2 2 2 2 2 2 2 2 2 2 2 2 2 2 2 2 2 2 2 2 2 2 2 2 2 2 3 l ' ' ' ' ' ' &.",
"' ' ' ' ' ' &.j 1 2 2 2 2 2 2 2 h &.' ' ' ' z ; 2 2 2 2 2 2 2 2 2 2 2 2 2 2 2 2 2 2 2 2 2 2 2 2 2 2 2 2 D ' ' ' ' ' ' ' ",
"' ' ' ' ' ' ' j 2 2 2 2 2 2 2 1 j ' ' ' ' ' z ; 2 2 2 2 2 2 2 2 2 2 2 2 2 2 2 2 2 2 2 2 2 2 2 2 2 2 2 2 l ' ' ' ' ' ' &.",
"' ' ' ' ' ' &.l 2 2 2 2 2 2 2 1 h ' ' ' ' ' L , 2 2 1 2 2 2 2 2 2 2 2 1 2 2 2 2 2 2 2 2 2 2 2 2 2 2 2 2 D ' ' ' ' ' ' ^ ",
"' ' ' ' ' ' ' D 2 2 2 2 2 2 2 2 s ) ) ' ' ' P 4 2 2 2 2 2 2 2 2 2 2 2 2 2 2 2 2 2 2 2 2 2 2 2 2 2 2 2 2 J &.' ' ' ' ' ^ ",
"R ' ' ' ' ' ' R 6 2 2 2 2 2 2 2 u ) ) ' ' ' _ r 2 2 2 2 2 2 2 2 2 2 2 2 2 2 2 2 2 2 2 2 2 2 2 2 2 2 2 6 R ' ' ' ' ' ' R ",
"Z ' ' ' ' ' ' ' u 2 2 2 2 2 2 2 7 ) ' ' ' ' ' j 2 2 2 2 2 2 2 2 2 2 2 2 2 b &.    2 2 2 2 2 2 2 2 2 2 u ' ' ' ' ' ' ' Z ",
"l ' ' ' ' ' ' ' h 2 2 2 2 2 2 2 2 D ' ' ' ' ' Z 5 2 2 2 2 2 2 2 2 2 2 2 6 R ' &.&.' P 6 2 2 2 2 2 2 2 j ' ' ' ' ' ' ) b ",
"h _ ' ' ' ' ' ' D 2 2 2 2 2 2 2 2 h ' ' ' ' ' &.r 2 2 2 2 2 2 2 2 2 2 2 x ' ' ' ' ' R 0 2 2 2 2 2 2     ' ' ' ' ' ' ^ h ",
"  Z ' ' ' ' ' ' ^ 7 1 2 2 2 2 2 2 7 R ' ' ' ' ' _ 6 2 2 2 2 2 2 2 2 2 7 ' ' ' ' ' &.z O 2 2 2 2 2       ' ' ' ' ' ' J   ",
"  l ' ' ' ' ' ' ' j 2 2 2 2 2 2 2 2 k | ' ' ' ' &.R 6 2 2 2 2 2 2 2 7 ' ' ' ' ' ' ' 8 * 2 2 2 2 2       ' ' ' ' ' ' l   ",
"  a ' ' ' ' ' ' ) R 6 2 2 2 2 2 2 2 6 Z ' ' ' ' ' ' &.b   6 5 5   b &.' ' ' ' ' ' z o 2 2 2 2 2 2     &.' ' ' ' ' T s   ",
"  7 D ' ' ' ' ' ' ' h 2 2 2 2 2 2 2 2 r Z ' ' ' ' ' ' ' &.&.&.&.' ' ' ' ' ' ' ^ Q & * 2 2 2 2 2 2 j &.' ' ' ' ' ' J r   ",
"    j ' ' ' ' ' ' ' ) u 2 2 2 2 2 2 2 2 r Z | ' ' ' ' ' ' ' ' ' ' ' ' ' ' ' ' ^ 8 o 2 2 2 2 2 2 7 ^ &.' ' ' ' ' ' j     ",
"    7 R ' ' ' ' ' ' ' D 6 2 2 2 2 2 2 2 : < z ' | ' ' ' ' ' ' ' ' ' ' ' ' ' P 8 o 1 2 2 2             &.' ' ' ' R 7     ",
"      s ' ' ' ' ' ' ' ' c 6 2 2 2 2 2 2 2 1 ; e n ' | ' ' ' ' &.' ' &.' X.t @ O 1 2 5                   ' ' ' ' h       ",
"      7 D ' ' ' ' ' ' ' ' l 6 2 2 2 2 2 2 2 2 ; + 8 y v J R ^ R R L z q @ . * 2 2 5                     &.' ' b 6       ",
"        7 ^ ' ' ' ' ' ' ' ' l 6 2 2 2 2 2 2 2 2 2 : + o @ # # # @ . . o ; 2 2 2 5                       ' ' T u         ",
"        2 s R ' ' ' ' ' ' ' ' D u 2 2 2 2 2 2 2 2 2 2 2 2 : : : : 1 2 2 2 2 2 2                       &.' ^ s 5         ",
"          3 j ' ' ' ' ' ' ' ' ^ T j 6 2 2 2 2 2 2 2 2 2 2 2 2 2 2 2 2 2 2 2 5                       &.' ' j 2           ",
"            6 l ' ' ' ' ' ' ' ' ' ' T i 6 2 2 2 2 2 2 2 2 2 2 2 2 2 2 2 2 2                       &.' ' l 3             ",
"              6 l 1.' ' ' ' ' ' ' ' ' ' D h 7 2 2 2 2 2 2 2 2 2 2 2 2 2 2 7                     &.' ' l 6               ",
"              2 6 j ' ' ' ' ' ' ' ' ' ' ' ' ) l h i u 7 6 6 6 6 7 u i h D T                   &.' ' j 6 2               ",
"                  2 h ' ' ' ' ' ' ' ' ' ' ' ' ' ' ' ) ^ R J J T T ' ' | ' ' &.          &.&.' ' ' h 3                   ",
"                    2 s R ' ' ' ' ' ' ' ' ' ' ' ' ' ' ' ' ' ' ' ' ' ' ' ' ' ' ' ' &.' ' ' ' &.R a 2                     ",
"                      2 6 j ' ' ' ' ' ' ' ' ' ' ' ' ' ' ' ' ' ' ' ' ' ' ' ' ' ' ' ' ' ' ' ' k 7 2                       ",
"                        2 2 a b _ ' ' ' ' ' ' ' ' ' ' ' ' ' ' ' ' ' ' ' ' ' ' ' ' ' 1.' l u 2 2                         ",
"                            2 2 u k ' | ' ' ' ' ' ' ' ' ' ' ' ' ' ' ' ' ' ' ' ' | T l u 2 2                             ",
"                                2 2 7 j D T ' ' ' ' ' ' ' ' ' ' ' ' ' ' &.' ) D h 7 2 2 5                               ",
"                                    2 2 6 7 s k D R T R ^ &.' T ' R T D k s 7 2 2 2                                     ",
"                                          2 2 2 3 6 6 7 7 u u 7 7 6 3 2 2 2 2                                           ",
"                                                2 2 2 2 2 2 2 2 2 2 5 2                                                 "
};
