/* XPM */
static char *_6f4dd918bb64387dcf93fe25fcc79c4QAQChX5XjL6WKjKO[] = {
/* columns rows colors chars-per-pixel */
"60 60 169 2 ",
"   c None",
".  c #2C1702",
"X  c #2E1802",
"o  c #351C03",
"O  c #3A1E03",
"+  c #201B15",
"@  c #281F16",
"#  c #241E18",
"$  c #3E2003",
"%  c #33200D",
"&  c #2D2114",
"*  c #26221D",
"=  c #2C241C",
"-  c #3C2813",
";  c #30271F",
":  c #34291F",
">  c #3E2E1F",
",  c #2D2B28",
"<  c #332C26",
"1  c #332E28",
"2  c #3B3127",
"3  c #36312B",
"4  c #3B3228",
"5  c #343434",
"6  c #3D3731",
"7  c #3B3936",
"8  c #363B3E",
"9  c #3C3C3A",
"0  c #452302",
"q  c #4D2601",
"w  c #4F2801",
"e  c #45290E",
"r  c #4E2E0E",
"t  c #502700",
"y  c #532901",
"u  c #5A2D00",
"i  c #522D09",
"p  c #4B2F12",
"a  c #4F3012",
"s  c #4A3018",
"d  c #503112",
"f  c #54381D",
"g  c #423527",
"h  c #4F3A25",
"j  c #513A23",
"k  c #533E2A",
"l  c #403B35",
"z  c #403F3C",
"x  c #4D4033",
"c  c #45413D",
"v  c #49423B",
"b  c #504337",
"n  c #3F4041",
"m  c #444444",
"M  c #4B4A47",
"N  c #434649",
"B  c #45494C",
"V  c #4A4B4C",
"C  c #534E48",
"Z  c #53514E",
"A  c #474D51",
"S  c #4C4F52",
"D  c #4D5155",
"F  c #4E555B",
"G  c #535453",
"H  c #5B5752",
"J  c #5D5A55",
"K  c #52565A",
"L  c #53595D",
"P  c #5E5C59",
"I  c #605C57",
"U  c #605E5A",
"Y  c #65625F",
"T  c #555D63",
"R  c #585F64",
"E  c #576067",
"W  c #5A6166",
"Q  c #576168",
"!  c #5D676F",
"~  c #5C666E",
"^  c #5E676E",
"/  c #5E676F",
"(  c #5F676F",
")  c #5D656D",
"_  c #5B646B",
"`  c #5F686F",
"'  c #5E6870",
"]  c #5F6970",
"[  c #5F6971",
"{  c #5F6972",
"}  c #5F6A72",
"|  c #5F6971",
" . c #60686F",
".. c #616970",
"X. c #606971",
"o. c #606A71",
"O. c #606A72",
"+. c #626B73",
"@. c #606B74",
"#. c #616B74",
"$. c #616C74",
"%. c #616C75",
"&. c #636C74",
"*. c #626C75",
"=. c #626D75",
"-. c #636D75",
";. c #626D76",
":. c #636D76",
">. c #626E76",
",. c #636E76",
"<. c #636E77",
"1. c #656D74",
"2. c #646D75",
"3. c #656F77",
"4. c #666F76",
"5. c #626C75",
"6. c #646F78",
"7. c #656F78",
"8. c #666F78",
"9. c #646F79",
"0. c #657079",
"q. c #677179",
"w. c #65707A",
"e. c #66717A",
"r. c #67727B",
"t. c #67737D",
"y. c #67727C",
"u. c #67737E",
"i. c #67727B",
"p. c #687178",
"a. c #697179",
"s. c #68727A",
"d. c #69737B",
"f. c #68737C",
"g. c #68747D",
"h. c #6A757D",
"j. c #69757E",
"k. c #69757F",
"l. c #6A757E",
"z. c #6B757F",
"x. c #69767F",
"c. c #6B767F",
"v. c #69737C",
"b. c #697680",
"n. c #6B7781",
"m. c #6A7680",
"M. c #6B7782",
"N. c #6A7781",
"B. c #6B7882",
"V. c #6B7883",
"C. c #6C7882",
"Z. c #6C7883",
"A. c #6C7983",
"S. c #6D7983",
"D. c #6C7984",
"F. c #6D7984",
"G. c #6D7A84",
"H. c #6D7A85",
"J. c #6C7A85",
"K. c #6E7A84",
"L. c #6D7B86",
"P. c #6E7B86",
"I. c #6E7C87",
"U. c #6C7984",
"Y. c #6E7C88",
"T. c #6E7C88",
"R. c #707D87",
"E. c #727F8A",
"W. c #74808B",
/* pixels */
"                                                                                                                        ",
"                                                                                                                        ",
"                                                                                                                        ",
"                                                  l.S.S.W.K.l.r.+.2.                                                    ",
"                                              Q l.V.V.V.V.V.S.V.y.F _ 2.                                                ",
"                                            { _ V.V.S.V.V.V.J.S.<.T ! L !                                               ",
"                                        B u.I.%.%.S.V.S.S.S.u.G._ <.K.l._ Q r.                                          ",
"                                      %.<._ { ! T V.V.S.V.` T Q T n.J.K.K.` T 2.                                        ",
"                                    A n.r._ %.{ A _ V.y.Q F V._ _ J.J.V.D.y.N F 2.                                      ",
"                                  %.%.R R r.K.V.L 5 6 < & * 9 8 _ K.V.J.n.F { { Q a.                                    ",
"                                ! K.V.{ B b.y.B & . O O o $ o X & A f.D.F R n.K._ ) a.                                  ",
"                              L n.J.J.J.{ F 3 o O O $ $ 0 w 0 0 0 o 6 D F 6.! ! ! T a.                                  ",
"                              %.J.J.V.K._ & o 0 $ 0 y y q u y u u q 0 & _ J.b.~ a.y.! l.                                ",
"                            8 %.n.J.J.r.3 O o 0 q q u u w u y u u q y q 3 9.L.~ r.O.A 2.M.                              ",
"                            R E R 6.n.B o $ O y y y u y y u y y y q u u 0 m b.F S K Q W h.                              ",
"                            V.n.y.R A & O $ 0 u y w u y w u y u y t y u t e B L <.S.K.O.a.                              ",
"                          R S.n.K.n.7 X O 0 y u y w u y q u y u y t u u t y 3 f.K.V.J.#.4.d.                            ",
"                          _ y.V.J.9.< o $ y y y y y u u y u y y y t u t t u - #.K.J.y.#. .M.                            ",
"                          T ! S.K._ o o 0 u y y y w u y w u y u y t u y t u 0 T L.V.{ R ! 4.                            ",
"                          { E u.V.F o o q u w u y w u y y u y u y t u y y u w B V.b.R <._ h.                            ",
"                          T D <.y.m O O y u t u y y u y w u y y y t u u y u y z y.r.) ! T a.                            ",
"                          V._ K.I.G O O w u y u y t u u y u w u u t u y y u y P T.K.K.n.) f.                            ",
"                          K.w.<.S.G O O y u t u y t u y y u w y u t u u t u u I J.V.J.<.T f.                            ",
"                          J.J.' _ m o O q y q y t q u t q y w y y 0 y y q u t I K.V.V.b._ a.                            ",
"                          S.V.} D.S & = 4 4 3 2 4 3 4 4 3 g 3 4 4 3 2 2 3 g 3 K K.n.M.n.) f.                            ",
"                          n.y.T M.L 7 m G L Z S K S S K V K G S K S G K A G S T n.n.n.f.W a.                            ",
"                          R _ D ! N , 7 V N B V m M V m V V N V m m V m S V z N R T T L F n.                            ",
"                          f.V.V.D.S # * 1 1 < 1 1 3 1 1 < 1 1 1 1 1 < 1 1 1 < K n.n.M.f._ a.                            ",
"                          b.V.b.n.G o o q q 0 q q 0 t q 0 t 0 q t 0 q q 0 q q I J.b.V.b._ f.                            ",
"                          F T T R 9 o 0 y u y u y y u u t u y u u t u y t u t z R R F T K h.                            ",
"                          n.n.n.M.G O O y u w u y q u u y u t y u q y u t u t H T.y.} b.W h.                            ",
"                          y.l.n.n.G O $ y u w u y w u y y u y y u q u y y u y P } ! <._ ! a.                            ",
"                          T _ _ ! z O 0 y u w u y w u y y u y y u w u y q u y v F T R A F f.                            ",
"                          K.K.K.K.G O O y u y u y y u u y u y u u w u y y u y H K.O.<.~ _ l.                            ",
"                          n.J.J.D.M O 0 y u t u y y u u w u y y u q r a p i y J #.{ { Q ! a.                            ",
"                          J.n.J.T.V o O y u q u u y u y w u y y u q g G D s t c D T T n R M.                            ",
"                          y.K.V.T.G O O y u t u u q u u y u y u u r 9 4 4 2 i H V.n.n._ ! a.                            ",
"                          n.n.n.V.G O O y u t u u t u y y u y y u f k y q j s I J.n.K.! _ f.                            ",
"                          T _ _ _ 9 O $ y u t u u t u y q u y u y d b y y b i v ! ! ` F T a.                            ",
"                          r.n.n.J.Z O O y u t u u q u y y u y y y w j x l j y J E.E.K.l._ l.                            ",
"                          n.n.K.D.C O $ y u t u u q u u y u y u y t y i r u t U K.V.V.b.! a.                            ",
"                          n.n.n.P.M O O y u y u y t u y y u t y y q u u t u t U J.J.V.b.! f.                            ",
"                          y.V.V.D.G o O t t q y q 0 y t q u q y t q y y q y q U K.K.J.n.! n.                            ",
"                          r.J.K.R.K @ , 4 4 3 4 3 4 2 2 3 4 2 2 2 3 4 2 4 2 2 R K.%.b.n. .f.                            ",
"                          L T T T n 9 n Z K S Z K Z F G V L G D K G S K V G G A Q A _ R T h.                            ",
"                          { } { @.A , 7 S N B V m M V n V V m D m M S m V V n T S.R.M.O.T a.                            ",
"                          R.J.J.T.D + @ < < 1 < < 1 1 1 1 < < 1 < < 1 1 1 1 1 R K.K.K.2.W S.                            ",
"                          #.%.{ :.m o o 0 t 0 t t 0 t q 0 q 0 q q 0 t t 0 q q P J.K.S.4.W a.                            ",
"                          f.l.! f.V o $ u u w u u t u y y u w u u q y u t u u U T.J.J.2.Q h.                            ",
"                          K.#.O.2.D o $ y u w u u q u u y u y y u t u u t u y U J.y.n.%.W h.                            ",
"                          T F { L 9 o $ y u w u u q u y y u y u u q u u y u y C _ S O.T L d.                            ",
"                          <.l.n.y.M O $ y u y u u y u u y u y u u q u y w u q C O.{ O.! R h.                            ",
"                          K.K.J.T.G o $ y u w u y y u y y u y u u t u y y u y  .T.K.K.n. .r.                            ",
"                          n.V.J.T.G O $ y u w u u w u u y u y y y t u u w u t C 2.2.#.{ R n.                            ",
"                          K.J.J.T.G $ $ y u w u u w u y y u y y u t y y y u y C l.f.h.6.R f.                            ",
"                          K.n.y.R.G O $ u u y u u y u u u u y u u t u u y u u  .T.S.K.M.! f.                            ",
"                          { S T O.m X o 0 0 0 q 0 0 0 0 0 q $ 0 0 0 0 0 0 q 0 M _ _ Q R T a.                            ",
"                                                                                                                        ",
"                                                                                                                        ",
"                                                                                                                        "
};
