/* XPM */
static char *_620f5fe51d640e0bbcda34a041c3203zd0J6esG2ioIxvMg[] = {
/* columns rows colors chars-per-pixel */
"60 60 187 2 ",
"   c None",
".  c #181716",
"X  c #1A1917",
"o  c #1C1B1A",
"O  c #171616",
"+  c #211A17",
"@  c #231D1B",
"#  c #2B1D1A",
"$  c #341E1A",
"%  c #23211E",
"&  c #29231E",
"*  c #35201C",
"=  c #3C211D",
"-  c #1F1E21",
";  c #201F22",
":  c #1F2A33",
">  c #1F2D3A",
",  c #1B2732",
"<  c #232323",
"1  c #2C2322",
"2  c #2B2924",
"3  c #24242B",
"4  c #2D2C2A",
"5  c #312B25",
"6  c #332E2B",
"7  c #322724",
"8  c #35302C",
"9  c #39342D",
"0  c #343125",
"q  c #202B35",
"w  c #292A35",
"e  c #242F3A",
"r  c #2D2E3B",
"t  c #24323F",
"y  c #2C353D",
"u  c #2C3337",
"i  c #343333",
"p  c #3B3632",
"a  c #393936",
"s  c #3D3D3D",
"d  c #431F1B",
"f  c #43231D",
"g  c #4B241E",
"h  c #54241F",
"j  c #412D25",
"k  c #4C2921",
"l  c #522620",
"z  c #5B2620",
"x  c #552820",
"c  c #5D2A22",
"v  c #443628",
"b  c #573221",
"n  c #433B34",
"m  c #413E3C",
"M  c #612721",
"N  c #642B23",
"B  c #6C2D24",
"V  c #742C24",
"C  c #7C2D25",
"Z  c #7A3128",
"A  c #4B432E",
"S  c #4C423B",
"D  c #42403E",
"F  c #574E35",
"G  c #52493F",
"H  c #554A3D",
"J  c #5B5235",
"K  c #69593C",
"L  c #2D3A46",
"P  c #273848",
"I  c #333444",
"U  c #363749",
"Y  c #303A43",
"T  c #273E53",
"R  c #3F4142",
"E  c #35434C",
"W  c #2E4154",
"Q  c #2F455A",
"!  c #354555",
"~  c #3B4B54",
"^  c #374A5D",
"/  c #3E515A",
"(  c #2F4A63",
")  c #314D68",
"_  c #34506C",
"`  c #3A546D",
"'  c #3C5267",
"]  c #3F5A75",
"[  c #3E5F7F",
"{  c #345471",
"}  c #434343",
"|  c #4B4B4C",
" . c #494947",
".. c #574C42",
"X. c #5B5045",
"o. c #434F59",
"O. c #484F55",
"+. c #555452",
"@. c #595755",
"#. c #565858",
"$. c #475759",
"%. c #615549",
"&. c #605F5E",
"*. c #716255",
"=. c #766659",
"-. c #7C6B5D",
";. c #766942",
":. c #445965",
">. c #465D6C",
",. c #425362",
"<. c #435D76",
"1. c #49616D",
"2. c #41607F",
"3. c #4F6A79",
"4. c #4C6678",
"5. c #526C7D",
"6. c #5B6D7A",
"7. c #7F6D60",
"8. c #6C6E72",
"9. c #757473",
"0. c #7C7C7D",
"q. c #75787C",
"w. c #656564",
"e. c #842E26",
"r. c #8C2F27",
"t. c #8C3027",
"y. c #86332A",
"u. c #8B3229",
"i. c #873027",
"p. c #943028",
"a. c #9B332A",
"s. c #A2362C",
"d. c #A2362C",
"f. c #AB3A2E",
"g. c #A1382D",
"h. c #AE3E31",
"j. c #B23C30",
"k. c #8F6027",
"l. c #8B7867",
"z. c #927D6B",
"x. c #97826F",
"c. c #9D8673",
"v. c #A9917C",
"b. c #436382",
"n. c #4B6E8D",
"m. c #496885",
"M. c #506F8C",
"N. c #5B798D",
"B. c #547288",
"V. c #4E7191",
"C. c #547594",
"Z. c #5D7C99",
"A. c #5D7D94",
"S. c #5E8195",
"D. c #65869E",
"F. c #728B9D",
"G. c #5E80A0",
"H. c #658BA5",
"J. c #6C8EAA",
"K. c #6888A5",
"L. c #7492AA",
"P. c #7496B2",
"I. c #7C9DB8",
"U. c #769AB6",
"Y. c #79A2BC",
"T. c #8D8C8C",
"R. c #828181",
"E. c #929493",
"W. c #9E9D9C",
"Q. c #B89E87",
"!. c #BCA189",
"~. c #A3A09E",
"^. c #8095A5",
"/. c #88A7BE",
"(. c #C0A48C",
"). c #C6A990",
"_. c #8AABC4",
"`. c #8BAFC9",
"'. c #91ABC0",
"]. c #8FB4CF",
"[. c #92B4CB",
"{. c #9BB4C7",
"}. c #8FB9D3",
"|. c #95BBD4",
" X c #99BBD2",
".X c #9BC4DE",
"XX c #A6C1D6",
/* pixels */
"                                                                                                                        ",
"                                                                                                                        ",
"                                                                                                                        ",
"                                                                                                                        ",
"                                                                                                                        ",
"                            o o                                                                                         ",
"                          o X @             o X                     X o                                                 ",
"                          o o o     o o X X X X X X X o             X X                                                 ",
"                        o o @ o o o o X X @ * f k z l d @ X         X o o                                               ",
"                        X @ @ X o o o + f N B V i.p.p.p.y.k o       o ; o                                               ",
"                        o @ @ X X X + h B B B Z p.i.p.p.p.a.N o o X o 1 +                                               ",
"                        o # ; 1 % o & B B B V r.p.V C p.a.h.a.N X @ 1 1 o                                               ",
"                        o @ 1 @ 2 1 + c B N Z p.p.C z p.p.s.s.h.j + @ @ o                                               ",
"                        X @ @ @ & & o z B N e.p.p.r.d e.p.p.p.j.y.o @ @ o                                               ",
"                        X X @ 1 @ % + c B N e.p.p.p.B d r.p.p.p.g.= o o                                                 ",
"                        o o X o @ X # B B M e.p.p.p.p.N V p.p.p.s.c .                                                   ",
"                      o % % o X o # x V B B t.p.p.p.p.p.r.p.p.p.a.Z o                             L L                   ",
"                      o % % % & x N B B B B t.p.p.p.p.e.p.t.p.p.a.y.@                           E B.L                   ",
"                      o % % o = B B B B B h V p.p.p.p.e.t.r.t.p.a.y.@                           F.D.                    ",
"                      o < % % f B B B N $ $ g V p.p.p.t.e.p.p.p.a.a.+                         6. XA.                    ",
"                      o < % o f B Z N & = r.t.r.p.p.p.t.e.p.p.p.s.h.=                       ~ [.[.3.                    ",
"                      o % % o g B B h & N e.r.a.p.p.p.p.p.p.p.p.e.t.k X                   Y L..X/.>.                    ",
"                      o % % o f c B N & # # # h r.p.a.p.p.p.p.B # k f X                   6.|.}.L.^                     ",
"                      o < & o f N N B = # f # + d r.f.d.t.p.e.# f N @                     F..X`.Z.L                     ",
"                    o X @ < o * B c B B B l @ o + d p.r.B p.d + = = X                   o._.]./.4.                      ",
"                    2 %.9 o % & N B B B M ; 2 6 2 + h V z M o @ < X X                 ~ ^. X_.D.!                       ",
"                    ..*.-.8 o o k B B N N # 6 i 6 % N p.C z @ 4 4 o                 8./.[.[.J.>.                        ",
"                  o S n ..=.o o * B x l B = ; ; 1 @ e.p.z V # 2 4 o               o.{. X`.P.m.L                         ",
"                  o n S 9 l.S X & N = N e.C = # $ M p.p.l C B @ o X             y F.XX[.P.C.!                           ",
"                    n 9 S -.x.o @ x = B e.C e.r.p.p.p.p.f M p.r.k X             6./.{._.Z.'                             ",
"                    9 n *.*.Q.n X x = B B z h M r.r.M C d g p.j.N X           ,.J.I._.J.<.P                             ",
"                    2 ..-.=.Q.*.X l f l h h p i d C z # + h V g = X         ,.Z.K.P.L.b.L                               ",
"                    o G *.7.!.c.% f N g g f +.T.+.2 k g f d 6 i X o       ! C.C.H.H.M.^                                 ",
"                      0 x.v.).!.9 + c B c g D 0.x.#.i i p #.9.| X       u 2.C.C.Z.C.` e                                 ",
"                        X.(.v.v.=.5 # N B N 5 D | &.q.9.E.W.+.4 X       , ] V.C.V.<.P                                   ",
"                        & ..p p z.c.0 # N B f % w.T.T.9.E.E.4 o X       W n.V.n.b.T                                     ",
"                              X 8 x.c.9 # c B k 1 7 * $ $ 6 @ X X   q Q b.n.n.[ Q q                                     ",
"                                X % %.l.p @ c B B N C c C C d X   q ( [ [ [ b.) P                                       ",
"                                  o X 2 n o $ N B N C f.d.e.+ o   : ( W ` 2.2.T                                         ",
"                                  % U } @ o X $ N z V a.d.z o       i a _ { ) P                                         ",
"                                  < #.N.n X X X = B B a.f.= X     v k.G T > >                                           ",
"                                  4 | q.p ; ; X X k B a.a.& <     F K s P                                               ",
"                                o s R #.i w r 3 o @ g e.z 4 |   j $.@.v ,                                               ",
"                                o D O.8.i w U I I 3 o # o 2 } o 8 x h 9                                                 ",
"                                2 2 u D % w U L U I - X X o o o i 6 2                                                   ",
"                                D +.@.| < % 3 < < ; < y :.E o o <                                                       ",
"                                i @.0.W.s ~ 3.3.3.N.H.H.S.1.o o                                                         ",
"                                o n 9.~.} E ' 1.5.H.Y.S.B.1.o o                                                         ",
"                                  o 4 a < / 4.3.m.5.:.~ u < o                                                           ",
"                                  < 3 3 < 3 < < < 3 < 3 r I o                                                           ",
"                                  o - 3 w I U I I I Y u 4 @                                                             ",
"                                      o o - 3 3 < < o o ; o                                                             ",
"                                      o X . X X o X o % & %                                                             ",
"                                      & p F J &   2 J ;.K &                                                             ",
"                                      % 0 A A &   % & 0 2 o                                                             ",
"                                          X X                                                                           ",
"                                                                                                                        ",
"                                                                                                                        ",
"                                                                                                                        ",
"                                                                                                                        "
};
