/* XPM */
static char *_253a6f9d11d44e386aa23cbe78bbbe76vIXeDLiaffs7Mq1[] = {
/* columns rows colors chars-per-pixel */
"60 60 172 2 ",
"   c #1F2A14",
".  c #242C1E",
"X  c #2C351E",
"o  c #252F29",
"O  c #293323",
"+  c #2B332B",
"@  c #2F3928",
"#  c #313B24",
"$  c #323C2B",
"%  c #2E3932",
"&  c #2F3938",
"*  c #333D33",
"=  c #333D3C",
"-  c #34411D",
";  c #3E461E",
":  c #364227",
">  c #384323",
",  c #3D4A23",
"<  c #36422C",
"1  c #3A442D",
"2  c #3F4C2C",
"3  c #354133",
"4  c #394432",
"5  c #3C4934",
"6  c #36423B",
"7  c #3A453C",
"8  c #3D4A3C",
"9  c #424D25",
"0  c #434D2B",
"q  c #465323",
"w  c #47542D",
"e  c #525E2D",
"r  c #414C32",
"t  c #414C3B",
"y  c #4C5B30",
"u  c #44533B",
"i  c #545F34",
"p  c #505A3A",
"a  c #56662E",
"s  c #59652B",
"d  c #5E6A2D",
"f  c #5D693E",
"g  c #6B7B36",
"h  c #677539",
"j  c #333E41",
"k  c #364243",
"l  c #394544",
"z  c #3D4B44",
"x  c #374448",
"c  c #3A454B",
"v  c #3D4B4C",
"b  c #3D524A",
"n  c #374650",
"m  c #394752",
"M  c #3E4B54",
"N  c #3F4C59",
"B  c #3E515B",
"V  c #3E5263",
"C  c #414646",
"Z  c #414D42",
"A  c #424D4C",
"S  c #445243",
"D  c #495546",
"F  c #4D5C44",
"G  c #44534C",
"H  c #4A564B",
"J  c #46584D",
"K  c #4D5A4D",
"L  c #424D53",
"P  c #484F57",
"I  c #424E5A",
"U  c #445354",
"Y  c #495555",
"T  c #465956",
"R  c #4B5A54",
"E  c #45545B",
"W  c #49555A",
"Q  c #465A5C",
"!  c #4A5C5C",
"~  c #515F57",
"^  c #525D5C",
"/  c #4F6044",
"(  c #52634B",
")  c #5B6A4A",
"_  c #4B615D",
"`  c #5A6753",
"'  c #5C6952",
"]  c #54645B",
"[  c #465661",
"{  c #495662",
"}  c #475961",
"|  c #4B5D64",
" . c #4D5E6B",
".. c #555D61",
"X. c #595F64",
"o. c #505F6D",
"O. c #4E5F70",
"+. c #4E6265",
"@. c #4E616B",
"#. c #516465",
"$. c #5A6265",
"%. c #526865",
"&. c #596A65",
"*. c #51646C",
"=. c #5D6368",
"-. c #54696C",
";. c #5B6A6D",
":. c #57706F",
">. c #5E706E",
",. c #4F6171",
"<. c #536473",
"1. c #586774",
"2. c #566974",
"3. c #5A6C74",
"4. c #566778",
"5. c #576978",
"6. c #5A6B7B",
"7. c #5C7174",
"8. c #5D727C",
"9. c #5E707E",
"0. c #636C6D",
"q. c #6D7C6C",
"w. c #606C71",
"e. c #667470",
"r. c #617275",
"t. c #6B7575",
"y. c #6B7971",
"u. c #687876",
"i. c #61707B",
"p. c #60747A",
"a. c #62717D",
"s. c #62737C",
"d. c #61737E",
"f. c #62747F",
"g. c #64757E",
"h. c #69777B",
"j. c #64787C",
"k. c #6B787C",
"l. c #76837F",
"z. c #5E6F80",
"x. c #5E7180",
"c. c #5F7180",
"v. c #627381",
"b. c #637483",
"n. c #677681",
"m. c #657687",
"M. c #687682",
"N. c #667985",
"B. c #6A7B85",
"V. c #6B7A86",
"C. c #677A8A",
"Z. c #6B7B89",
"A. c #6F7E8A",
"S. c #6B7D8C",
"D. c #6F7F8D",
"F. c #707F86",
"G. c #717F8C",
"H. c #6E818B",
"J. c #718284",
"K. c #70828A",
"L. c #73828B",
"P. c #77858F",
"I. c #788789",
"U. c #718290",
"Y. c #758390",
"T. c #758591",
"R. c #778596",
"E. c #768894",
"W. c #798A94",
"Q. c #7E8C95",
"!. c #798898",
"~. c #7A8D99",
/* pixels */
"c.y.' ' F H e.] S S J.I.F.h.F.Y.Q.l.q.F l.E.K.H.H.B.B.n.i.a.M.B.G.Y.Y.G.Y.~.W.Y K.!.R.! @ 0.b.6.b.n.m.C.m.6.5.3.] Z Z X ",
",.8.%.7.3.Q a.3.*.R K.g.3.2.3.6.v.A.J.u _ c.8.8.8.f.v.8.3.4.5.3.1.6.6.1.6.6.2.3.b.3.3.R 4 *.*.*. .<.4.3.<.<.<.*.&.3.X.6 ",
" .+.Q +.@.*. .@.@._ ;.@.*.<.3.<.-.<.<.5 b +.+.@.-.@.+.+. . . . . .O.O.O.4.5.<.6.<.*.| H 5 -.#.*.@. .<.,. .<.o.*.*.|  .U ",
" .| Q Q | |  .*.2.*.-.-.-.3.3.*.-.2.3.v } -.%.*.*.@.@.@. . .o. . .O.O. .,.,.1.4.3.<.#.I $ | @.|  . . .*.@.<.*.| } [ | v ",
" .+.! _ +.Q | 4.4.2.*.<.5.5.6.<.*.1.7.U <.4.:.2.<. .o.o. . .O. . .O.<. . .<.6.6.z.5.<.Y 4 +.@.*.<. . .<.<. .O. .} | } k ",
"<.@.+.+.+.! +.4.5.<.<.4.5.6.<.,.O.<.6.U 2.2.2.@.<.<.<.O. . .O.O. .<. .O. .1.6.6.c.5.<.] u 2.*.*.<. .O.<.O.@.<.@. .@.| k ",
"<.@.| @.+.| @.6.4.<.1.5.6.5.<.<.<.4.1.v *.7.2.2. .,.O.o.O. . . .O.<.O. .O.4.6.z.c.6.#.F u 3.*.<.<.o. . . .<.O.<.O. .W x ",
"@.<.@.@.*.@.2.6.<.<.<.6.6.6.1.<.<.4.<.k #.8.2.,.<.@.<.O. .O. .o.O.O.O.<.5.5.1.6.c.6.R y u 6.<.<.<.<.<. .<.<.<. . .[ Q U ",
" .<.o.1.6.6.c.5.1.<.1.5.5.5.4.<.<.5.<.3 G 2.<.#. .O.o.o.o.| { { Q W ! &.&.] ( ~ ] D O 9 4 <.*.|  . . . . .<.*. . .I E k ",
" .*.<.<.5.6.6.4.4.<.<.5.<.4.<.<.<.4.<.4 * Y ! Q W W U v c k = = = 7 < 9 q a g s 9 $ * t * v A k 6 x c C A v v A I l 8 # ",
" .*. .,.,.<.<.4.4.<.O.<.<.<.<.<.<.6.*.5 } W.Q.P.L.Z.r.7.a.w.1.3.i.a.;.z r d g i ^ e.B.B.v.6.v.3.G r.3.#.#.+.*.;.3.*.H $ ",
"<.<.@. .,.<.<.1.4.,.<.<.4.<.<.1.5.<.| 3 V 7.6.<.<.*.*.<.-.*.*.*.*.+.*.2.+.p e K a.*.-.-.2.<.<.4.*.K.2.*.@.+.@.@.#.<.<.W ",
"4.@.| @. .,.O.<.,.<.4.4.4.1.<.4.6.1.Q $ B +.+.| @.+.@.*.*.|  .*.+.! | | @.R > ! #.#.#.#.<.@.@.,. .i.2.-.+.| +.*. .| @.! ",
"6.*.|  . . . . . .,.5.4.<.<.2.4.6.6.R $ E +.+.@.@.@.@. .<.o.*. .[ | Q | @.U 4 *.#.#.2.<.<.<. .,. .-.@.@.@.@.@.<.<.@.@.T ",
"3.*.|  . .[  . . .O.1.<.<.<.*.<.3.<.R 0 ! +.| | *.*.<.<.<.<.<. .| [ | +.@.T S 3.*.-.6.6.<.O. .O. .<.| @.<.<.<.4.4.*.*.U ",
"6.| | @. .{ {  .O.<.<.O.<.<.*.*.*.-.R r #.+.| @.@.<.<.<.<.<.<.<.*.<.*.*.-.+.4 | +.<.5.1.<.<.O.O.<.@. .@.<.6.<.<.4.-.@.U ",
"7.+.+.@.@. . . . .<.@.<.*.@.*.-.;.-.+.5 *.2.*.*.2.<.,.<.<.,.5.<. .O. . .2.@.4 W *.*.1.<.<.O.O.<.<.,.,.<.<.4.5.<.<.<.*.Q ",
"8.+.+.+.@.|  .@. .*.,.*.*.+.-.7.7.%._ 8 -.<.*.<.4.2.5.<.<.5.5.,. . . . .2.| 4 ~  . . . .4.4.<.<.4.<.<.1.5.5.6.5.1.<. .{ ",
"z.-.#.+.+.} | |  .[ *.<.*.*.-.-.%._ _ z ] ;.*.<.6.6.6.5.,.5.<.,. . .{ O.6.+.* *.*. . . .4.4.<.<.<.6.<.4.6.6.6.6.6.<.*. .",
"3.*.Q +.+.| |  .@.@.5.6.3.*.#.#._ _ +.S ] p.*.-.2.6.6.<.,.,.,.<.<.<.<.4.6.R 6 <.<. .| <.4.4.<.<.<.6.6.6.4.4.5.6.6.<.<.#.",
"7.%.T T #.#.-.<.@.<.2.2.@.+.%.%.%.%.+.b _ 3.<.<.6.z.6.<.@.@.O.<.<.<.4.z.6.Q 3 *.<. . .<.4.4.4.4.*.3.5.1.4.1.4.6.4.<.+. .",
"-.7.+.+.| +.#.*.*.*.-.2.@.*.-.%.%.%.-.k ! 6.1.1.5.5.4.,.,.,.<.<.O.<.6.<.<.#.G 6.<. .O. .<.4.<.<. .<.6.O.<.<.<.@.<.*.+. .",
"&.N.7.2.| *.*.*.*.-.4.8.T +.-.*.-.2.T z *.6.-.-.1.5.5.,.,. . .<. . . .O.<.| S 3.<.o.O.,.1.4.4.<. .| 6. .<.<.<.@.<.*.+.@.",
"Z U G U v 8 = = l Y _ G 7 1 8 4 6 b 7 < #.<.<.<.z.6.5.<.,.<.<.,. . . . .O...u | <.<.<.1.4.6.6.4.[ W *.o.| @.@. .@.#.@.Q ",
"< ~ &.;.0.;.;.;.w.t.u.r.k.k.u.D z n.*.U *.2.2.4.5.5.,. .O.6.1.<.,.,.<.@. .@.4 A <.<.<.1.4.6.6.4.[ <.E o.*.#.+.@.*.| *.^ ",
"t g.j.p.n.a.v.r.a.8.m.Z.C.H.R.3.f.v.5. .3.2.-.-.<.<.<.O.<.O. . . . .<. .@.| 5 < } }  .| +.*.*.Q U W G A -.Q U Q Q z | ~ ",
"c | W Q +.+.+.*.*.2.<.<.1.c.C.b.6.1. .[ *.*.%.-.<.5.<.<.<. . .|  . .@.@. .Q 5 - * k c v 7 7 b z z A ~ Y H z z 5 5 4 t 8 ",
"L | ! T | | +.*.2.<.4.1.v.m.c.6.6.<.<.[ #.-._ +.<. . .5.O. .o.|  . . .| | J q $ v  . . .T ;.8.7.7.b.B.v.6.;.#.#.| #.| A ",
"E +._ T |  . .@.4.4.6.4.c.m.z.6.6.4.4.| ! %.+.#.@.+.<.@.{  . . . .} } }  .J 0 3 a.;.o.<.6.7.:.*.*.6.<.2.+.+.] +.! @.*.L ",
" .@._ Q |  . . .<.6.c.6.b.m.z.6.6.2.4.E U %.%.%.%.+.+.| | [  .| +.Q Q } } v < 3 %.Q R | @.-.*.@.@.,.5.6.2.-.-.%.| T Q v ",
" .| ! +. . . .@.<.5.z.N.U.m.6.4.6.6.6.E v %.%.%._ _ T T T E [ } | } T } @.T 3 G -.! T ! %.-.%.@.@.@.<.5.7.8.2.@.| | I c ",
"| } ! }  .,.<.5.5.5.c.H.S.c.4.4.4.6.6.L 7 @.%.+.Q T T U B U B E W Q | E <.| 3 *.*.Q T | @.@.@.,.,.,.4.5.6.5.@.@.} T I v ",
"<. . .*. . .<.<.<.6.c.N.m.6.6.5.<.6.6.v . 7 z z 7 k j = k j j & % 7 z 8 _ D < *.*.|  .,.<. .<.<.,.,.<.<.4.O. .| } } E L ",
"<. .@.<.<. .O. .[ 4.6.m.c.c.6.<.4.6.6.W 6 ^ ! ! T | -.*.*.} } Q E U D D S S 4 3.@.@.<.<. .| <.,.@. .O.,.<.,. .} }  .} U ",
"<. .<.<.,. .| 4. . .c.z.6.6.5.4.4.6.c.| Y b.6.8.8.b.8.2.@.+.+.} +.@.+.+.-.r.G 8.<.<.<.<.<. .1.<.,.@.<.,.,.<.@. .|  .| v ",
"@.|  .,.,. . .<.c.} <.8.6.5.4.<.1.5.6. .{ 6.o.2.#.Q ! | +.Q Q _ T +.T ! Q G Z v.6.4.4.2.1.z.4.<.@.@.<.<.<.<.+. . . . .L ",
"*.| +.<.<. .*.5.6.f.E *.6.2.,.5.6.z.6.@.| -.*.2.+.Q Q +.| | } } +.+.+.Q v 7 H A.7.2.4.1.6.6.<.<.,.<.*.@.-.#.+.+.+.| #.E ",
"*.| +.2.*.+.@.2.6.8.8.-.7.<.4.5.6.c.b. .A 8.8.*.+.} | +.+.} | | +.+.| Q ! _ K g.2.2.2.4.<.<.*.o.@.*.2.-.-.*._ +.| @.} z ",
"+.! +.-.-.-.#.*.-.3.7.+.Q  .4.<.5.6.6.+.W H.*.#.@.@.+.*.*. .|  .@.2.@.-.g._ t i.2.7.2.-.*.+.<.<.@.*.2.3.3.2.*.@.+.*.Q 8 ",
"+.+.+.+.-.-.%.-.2.-.Q x B 2.<.<.<.4.#.U U 3.+.+.+.+.@.2.<.@. .| @.@.Q 3.2._ S -.2.2.-.+.| |  .#.@.@.-.3.7.5.| } T U G < ",
"*.+.+.+.*.%.*.-.2.+.c B @.2.@.@.@.} v Q W 2.+.+.@.@.@.1.<.,.@.@.*. .<.3.*.! t T T z z k z z z z 7 7 S z J L 7 % + O $ O ",
"7.*.+.| +.@.+.2.7.G b %.+.+. . .@.n  .+.Q -.| +.+.@.@.@.,.,.,.,. .<.n.<.*.T G g.>.-.*.| @.+.%.;.+.! 8 _ ;.3.*.} | #.Q x ",
"<.+.Q Q U U U U U : b %.! Q E E M v E b Q <.+.| +.*.,.<.*. .@.<. .4.2. .<.W ] N.-.%.*.+.+.+.#.-.} Q +.%.! _ _ +. .<.5. .",
"7 8 u t 4 5 5 5 7 4 8 z S z 7 z 7 k 6 * W @.+.+.@.<.<.,.<.<.<.,. . . . .<.U J -.+._ +.+.}  .| Q } 2.-.Q _ _ _ _ | *.,.[ ",
"- ; - # 3 R ^ N.f.a.7.7.3.+.-.7.7.2.N x } @.@.@.<.<.<.<.<.,.2. . . . .O.<.R R 2.#.+. .o.@. . .<.2.2.+.Q _ _ +.+.+.#.<.[ ",
"q 9 . o R 3.b.N.6.*.@.+.| +.%.#.+.@.E x | ,.-.*.<.<.<.<.<.,.,.@.<.O.<.4.6.Q H 6.-.@.| | [ <.6.<.+.+._ _ +.+.*.*.<.<.<.[ ",
"h a ; b r.B.a.2.1.<.@. .| #.%._ _ +.+.N [ 5.<.6.1.<.<.<.<.<.,.<.O. . .<.6.! J 3.*.| } I -.6.*.+.+.+.+.#.@.-.<.<.<.<.<.[ ",
"w w 8 E | @.5.6.6.<.<.*.+.#.-.%.+.*.#.} *.6.2.6.5.5.<.<.,.5.[ } | [  . .<.K r *.*.@.L { 6.-.+.#.%.2.@.2.2.2.6.<.<.<.<.I ",
"2 l U +.+.*.2.6.6.6.5.O.o.-.-.;.@.#.*.R 3.3.3.3.6.6.6.<.<.<.+.%.R 7 S ` ) w > Z z M | 4.3.-.+.+.*.2.<.<.<.2.6.6.6.4.,.B ",
"S Q @.*.@.<.6.5.5.5.5.1.<.<.2.2.@.#.*.G f.g.-.*.6.6.6.*.@.@.%.+.o.U 8 f h ; $ ..Q 2.2.<.4.-.*.<.@. .*.<.<.5.6.6.6.<.<.E ",
"R | ..<.<.<.5.1.<.1.6.6.<.<.1.4.-.+.| v 3.8.*.*.3.8.6.*.+.+.Q +.#.*.o.U 8 # 5 6.c.6.<.2.4.<.2.<.<. . .O.4.4.6.x.5.<. .[ ",
"] *. .<.4.<.<.4.4.z.v.<.1.<.1.2.! U i.@...4.-.-.-.-.*.| +.| @.@.o.<.4.*.| 7 7 b.N.<.2.<.4.4.3.1.@.@. . .1.5.6.5.1.<. .[ ",
"] | +.@.,.@.,.,.<.4.z.5.1.1.<.E U b.c. .T 2.%.*.#.-.-.#.} +.*.*. . .@.@.+.G z 8.7.@.2.<.5.5.5.4.<. .[  .@.,.4.6.3.#.@.| ",
"+.+._ +. . .@.<.4.4.6.6.4.1.L P v.N.6.| U -.+.#.;.3.*.Q Q @.@.<.,. .} | +.U K 8.2.+.2.<.6.6.6.<. . . . . . .1.4.*.#.@.} ",
"*.+._ +.@.@.,.4.1.4.6.4.4.E L v.m.6.5.} M :.;.-.-.-.W v  .*.@.*.,.,.+.| @.! b 3.;.-.3.8.v.z.5.O.,.O. .O. .@.<.@.| +.| { ",
"*.| _ +.-.+.@.<.4.<.6.O.L c v.v.6.6.<.[ T 2.%.%.} I c | @.@.|  .@.,.@.+.2.| v %.%.-.-.6.n.z.4.<.O.@. . . .@. .@.| #.#. .",
"-.+.T ! @.+.@.2.<.5. .n M  .B.6.6.<.O.[ } 3.-.| M E | -.+.} |  .@. .@.@.*.3.l %.! ] #.3.w.6.1.O. . .[ { { | ! ..| @. .M ",
"6.*.} Q | | | ,.<.| E <.6.6.6.6.6.3.<.Q T 4.*.E I N *.;._ } +.|  . .} @.1.W C Y U L P ^ W W P P P P P I P L ^ ^ X...Y j ",
"c.2.| | } } +. .[ <.b.6.6.6.| 6.6.4.6.Q v [ I I E m 7.-.T Q | @.} @.[ 4.I L ^ &.X.X.X.X.0.X.X.X.X...~ X.=.X.X.0.t.w.^ = ",
"@.} [ E N M M x M @.6. .I M n I @.*.| 7 j I N I N N } L M N } E [  .x x = + + & l A W W I L L L I I P P L L L L M j j o "
};
